<svg width="181" height="48" viewBox="0 0 181 48" fill="none" xmlns="http://www.w3.org/2000/svg">
<g clip-path="url(#clip0_1692_13230)">
<path d="M16.2964 12.3411C7.15695 13.1609 0 20.8989 0 30.3165C0 40.2939 8.00944 48.3719 17.9023 48.3719H32.8704C32.8903 48.3719 32.8903 48.3719 32.9101 48.3719C23.0371 48.3519 15.0474 40.2739 15.0474 30.3165V18.9594C15.0474 16.62 15.4836 14.3805 16.2964 12.3411Z" fill="#FF42A5"/>
<path d="M49.5436 12.3411C50.3564 14.4005 50.7926 16.64 50.7926 18.9794V30.3365C50.7926 40.2939 42.803 48.3719 32.9299 48.3919C32.9498 48.3919 32.9498 48.3919 32.9696 48.3919H47.9377C57.8306 48.3919 65.84 40.3139 65.84 30.3365C65.84 20.8989 58.6831 13.1608 49.5436 12.3411Z" fill="#B3D661"/>
<path d="M32.8705 48.3719C32.8506 48.3719 32.8506 48.3719 32.8308 48.3719C32.8506 48.3719 32.8705 48.3719 32.8705 48.3719C32.8903 48.3719 32.8903 48.3719 32.9101 48.3719C32.9101 48.3719 32.8903 48.3719 32.8705 48.3719ZM32.8705 0.903982C25.2972 0.903982 18.8341 5.64278 16.2172 12.3411C16.7524 12.3011 17.2877 12.2611 17.823 12.2611H32.7912C32.811 12.2611 32.8506 12.2611 32.8705 12.2611C32.8903 12.2611 32.9299 12.2611 32.9498 12.2611H47.9179C48.4532 12.2611 49.0083 12.2811 49.5238 12.3411C46.9266 5.64278 40.4437 0.903982 32.8705 0.903982Z" fill="#51A5C9"/>
<path d="M32.811 12.2611H17.823C17.2877 12.2611 16.7326 12.2811 16.2171 12.3411C15.4043 14.4005 14.9681 16.64 14.9681 18.9794V30.3365C14.9681 40.2939 22.9578 48.3719 32.8308 48.3919C32.8506 48.3919 32.8506 48.3919 32.8704 48.3919C23.0172 48.3519 15.0474 40.274 15.0474 30.3365C15.0474 20.379 23.0172 12.3211 32.8704 12.2811C32.8506 12.2611 32.8308 12.2611 32.811 12.2611Z" fill="#4C4789"/>
<path d="M47.9377 12.2611H32.9695C32.9497 12.2611 32.9101 12.2611 32.8902 12.2611C42.7434 12.3011 50.7132 20.379 50.7132 30.3165C50.7132 40.274 42.7434 48.3319 32.8902 48.3719C32.9101 48.3719 32.9101 48.3719 32.9299 48.3719C42.8029 48.3519 50.7925 40.274 50.7925 30.3165V18.9594C50.7925 16.62 50.3564 14.3805 49.5435 12.3211C49.0082 12.2811 48.473 12.2611 47.9377 12.2611Z" fill="#398B4D"/>
<path d="M32.8705 12.2611C23.0172 12.3011 15.0475 20.379 15.0475 30.3165C15.0475 40.274 23.0172 48.3319 32.8705 48.3719C42.7237 48.3319 50.6934 40.254 50.6934 30.3165C50.7133 20.379 42.7237 12.3011 32.8705 12.2611Z" fill="#0B0223"/>
<path d="M32.9101 48.3719C42.7972 48.3719 50.8124 40.2882 50.8124 30.3165C50.8124 20.3448 42.7972 12.2611 32.9101 12.2611C23.0229 12.2611 15.0078 20.3448 15.0078 30.3165C15.0078 40.2882 23.0229 48.3719 32.9101 48.3719Z" fill="#0B0223"/>
<path d="M28.489 29.2368C28.489 30.8364 27.2004 32.136 25.6144 32.136C24.0283 32.136 22.7397 30.8364 22.7397 29.2368C22.7397 27.6372 24.0283 26.3375 25.6144 26.3375C27.2004 26.3375 28.489 27.6372 28.489 29.2368Z" fill="white"/>
<path d="M42.8228 30.8364H38.4612C37.688 30.8364 37.0536 30.1965 37.0536 29.4167V29.0768C37.0536 28.297 37.688 27.6572 38.4612 27.6572H42.8228C43.596 27.6572 44.2304 28.297 44.2304 29.0768V29.4167C44.2304 30.1965 43.596 30.8364 42.8228 30.8364Z" fill="white"/>
<path d="M28.5287 29.2767C28.5287 30.8763 27.24 32.176 25.654 32.176C24.068 32.176 22.7793 30.8763 22.7793 29.2767C22.7793 27.6771 24.068 26.3775 25.654 26.3775C27.24 26.3775 28.5287 27.6771 28.5287 29.2767Z" fill="white"/>
<path d="M42.8426 30.8764H38.481C37.7078 30.8764 37.0734 30.2365 37.0734 29.4567V29.1168C37.0734 28.337 37.7078 27.6972 38.481 27.6972H42.8426C43.6158 27.6972 44.2502 28.337 44.2502 29.1168V29.4567C44.2502 30.2365 43.6356 30.8764 42.8426 30.8764Z" fill="white"/>
<path d="M91.3816 9.4701C92.6336 10.7119 93.2596 12.5836 93.2596 15.0851V24.6279H86.362V16.276C86.362 14.3649 85.6801 13.4094 84.3161 13.4094C83.9628 13.3956 83.611 13.4608 83.2861 13.6001C82.9613 13.7394 82.6715 13.9494 82.438 14.2148C81.9622 14.7568 81.7242 15.6068 81.7242 16.7646V24.6126H74.8229V7.91272H81.3845V9.56171C82.0219 8.9225 82.7884 8.42669 83.6328 8.10739C84.5215 7.77609 85.4633 7.61049 86.4117 7.6188C88.4729 7.61116 90.1296 8.22827 91.3816 9.4701Z" fill="white"/>
<path d="M97.1836 23.8034C95.7652 23.1086 94.566 22.0361 93.7176 20.7039C92.8749 19.3658 92.4398 17.8114 92.4656 16.2303C92.4404 14.6504 92.8754 13.0973 93.7176 11.7604C94.5677 10.441 95.7676 9.38382 97.1836 8.7067C98.7531 7.9824 100.461 7.6073 102.19 7.6073C103.918 7.6073 105.626 7.9824 107.196 8.7067C108.604 9.3841 109.794 10.4419 110.631 11.7604C111.471 13.104 111.904 14.6615 111.879 16.2455C111.902 17.8193 111.473 19.3666 110.643 20.7039C109.805 22.0298 108.616 23.0973 107.207 23.7882C105.641 24.5223 103.931 24.9029 102.201 24.9029C100.471 24.9029 98.7618 24.5223 97.195 23.7882L97.1836 23.8034ZM104.127 18.6732C104.671 17.9855 104.943 17.1211 104.89 16.2455C104.945 15.3755 104.673 14.5164 104.127 13.8369C103.877 13.5687 103.574 13.3549 103.238 13.2087C102.902 13.0625 102.539 12.987 102.173 12.987C101.806 12.987 101.443 13.0625 101.107 13.2087C100.771 13.3549 100.468 13.5687 100.218 13.8369C99.672 14.5164 99.3997 15.3755 99.4547 16.2455C99.4019 17.1211 99.6737 17.9855 100.218 18.6732C100.465 18.9471 100.766 19.1661 101.103 19.3159C101.44 19.4658 101.804 19.5433 102.173 19.5433C102.541 19.5433 102.905 19.4658 103.242 19.3159C103.579 19.1661 103.88 18.9471 104.127 18.6732Z" fill="white"/>
<path d="M139.111 7.91272V17.1311C139.111 19.6173 138.358 21.536 136.851 22.8873C135.345 24.2386 133.238 24.9104 130.53 24.9027C129.486 24.9159 128.447 24.7665 127.45 24.46C126.547 24.1748 125.729 23.6713 125.068 22.9942C124.402 23.669 123.586 24.1765 122.686 24.4752C121.688 24.7797 120.648 24.924 119.605 24.9027C116.875 24.9027 114.763 24.2309 113.269 22.8873C111.775 21.5437 111.027 19.6198 111.024 17.1158V7.91272H117.926V16.673C117.926 18.5052 118.535 19.4214 119.754 19.4214C120.973 19.4214 121.594 18.5052 121.617 16.673V7.91272H128.518V16.673C128.518 18.5052 129.138 19.4214 130.377 19.4214C130.643 19.444 130.91 19.3985 131.153 19.2889C131.397 19.1793 131.608 19.0094 131.767 18.7953C132.064 18.3678 132.21 17.6502 132.21 16.6883V7.91272H139.111Z" fill="white"/>
<path d="M141.848 23.8263C141.6 23.583 141.404 23.2916 141.273 22.97C141.142 22.6483 141.077 22.3033 141.084 21.9559C141.074 21.6103 141.136 21.2664 141.268 20.9467C141.399 20.6269 141.597 20.3387 141.848 20.1008C142.353 19.6437 143.01 19.3907 143.691 19.3907C144.373 19.3907 145.03 19.6437 145.535 20.1008C145.787 20.3381 145.985 20.6262 146.117 20.9461C146.248 21.266 146.31 21.6102 146.299 21.9559C146.306 22.3034 146.243 22.6487 146.111 22.9705C145.98 23.2922 145.784 23.5835 145.535 23.8263C145.041 24.3062 144.38 24.5747 143.691 24.5747C143.003 24.5747 142.341 24.3062 141.848 23.8263Z" fill="#FF42A5"/>
<path d="M163.75 7.82111V19.7878C163.75 22.4343 163.065 24.3938 161.693 25.6662C160.321 26.9385 158.319 27.5747 155.685 27.5747C154.35 27.5861 153.021 27.4192 151.73 27.0785C150.61 26.8017 149.557 26.3018 148.635 25.6089L150.291 22.6125C150.972 23.1499 151.75 23.5527 152.582 23.7996C153.479 24.0894 154.417 24.2388 155.36 24.2424C156.803 24.2424 157.868 23.9141 158.551 23.2652C159.235 22.6163 159.594 21.6391 159.594 20.3222V19.7076C158.504 20.9037 156.99 21.5004 155.051 21.4979C153.792 21.5117 152.548 21.2126 151.433 20.6276C150.357 20.0679 149.456 19.2226 148.829 18.1846C148.175 17.0884 147.842 15.8307 147.867 14.5545C147.842 13.2771 148.175 12.018 148.829 10.9206C149.456 9.88786 150.354 9.04682 151.425 8.48911C152.541 7.90403 153.784 7.60498 155.044 7.61881C157.128 7.61881 158.713 8.30462 159.8 9.67624V7.82111H163.75ZM158.582 17.1044C158.932 16.7808 159.207 16.3854 159.39 15.9452C159.572 15.5051 159.658 15.0307 159.639 14.5545C159.658 14.0778 159.573 13.6028 159.39 13.162C159.208 12.7213 158.932 12.3252 158.582 12.0009C157.839 11.3371 156.867 10.9881 155.872 11.0275C154.872 10.9901 153.896 11.3386 153.146 12.0009C152.794 12.324 152.516 12.7196 152.332 13.1604C152.147 13.6013 152.061 14.0769 152.078 14.5545C152.061 15.0316 152.147 15.5066 152.332 15.9468C152.516 16.3871 152.794 16.782 153.146 17.1044C153.896 17.7666 154.872 18.1151 155.872 18.0777C156.867 18.1171 157.839 17.7681 158.582 17.1044Z" fill="#FF42A5"/>
<path d="M180.847 7.82112V19.7878C180.847 22.4216 180.162 24.3798 178.79 25.6624C177.418 26.9449 175.414 27.5811 172.778 27.5709C171.444 27.5786 170.116 27.4078 168.827 27.0632C167.706 26.7864 166.652 26.2866 165.728 25.5937L167.384 22.6125C168.065 23.1502 168.843 23.5531 169.675 23.7996C170.571 24.0896 171.507 24.239 172.45 24.2424C173.893 24.2424 174.958 23.9141 175.645 23.2652C176.332 22.6163 176.671 21.6315 176.671 20.3146V19.7076C175.585 20.9037 174.071 21.5004 172.129 21.4979C170.869 21.5117 169.626 21.2127 168.51 20.6276C167.435 20.0679 166.534 19.2226 165.907 18.1846C165.25 17.0892 164.915 15.8315 164.938 14.5545C164.912 13.2771 165.245 12.018 165.899 10.9206C166.526 9.88261 167.427 9.03737 168.503 8.47767C169.618 7.89258 170.862 7.59354 172.121 7.60736C174.206 7.60736 175.791 8.29317 176.878 9.66479V7.82112H180.847ZM175.679 17.1044C176.028 16.7802 176.302 16.3845 176.484 15.9445C176.666 15.5044 176.751 15.0303 176.732 14.5545C176.75 14.0782 176.666 13.6036 176.484 13.163C176.302 12.7223 176.028 12.326 175.679 12.0009C174.913 11.3719 173.952 11.0281 172.961 11.0281C171.97 11.0281 171.009 11.3719 170.243 12.0009C169.89 12.3233 169.612 12.7188 169.427 13.1598C169.243 13.6008 169.156 14.0768 169.175 14.5545C169.157 15.0317 169.243 15.5071 169.427 15.9475C169.612 16.3878 169.89 16.7827 170.243 17.1044C171.009 17.7334 171.97 18.0772 172.961 18.0772C173.952 18.0772 174.913 17.7334 175.679 17.1044Z" fill="#FF42A5"/>
<path d="M81.0868 33.392V40.072H80.1974V34.854L78.0216 38.4917H77.9147L75.7237 34.8578V40.072H74.8534V33.392H75.8573L77.9911 36.942L80.1134 33.392H81.0868Z" fill="white"/>
<path d="M91.6487 39.1864C91.081 39.763 90.3307 40.1246 89.5259 40.2094C88.7212 40.2942 87.9119 40.0969 87.2365 39.6513C86.5611 39.2056 86.0613 38.5393 85.8227 37.7661C85.584 36.9929 85.6212 36.1608 85.928 35.412C86.2347 34.6631 86.792 34.0441 87.5045 33.6605C88.2171 33.277 89.0407 33.1528 89.8346 33.3091C90.6286 33.4654 91.3436 33.8925 91.8576 34.5175C92.3716 35.1425 92.6526 35.9266 92.6526 36.7358C92.6614 37.1912 92.5769 37.6436 92.4043 38.065C92.2316 38.4865 91.9745 38.8681 91.6487 39.1864ZM87.3545 38.5795C87.8452 39.0593 88.5042 39.328 89.1905 39.328C89.8768 39.328 90.5358 39.0593 91.0265 38.5795C91.5048 38.0818 91.7718 37.4184 91.7718 36.7282C91.7718 36.038 91.5048 35.3746 91.0265 34.8769C90.5358 34.3971 89.8768 34.1284 89.1905 34.1284C88.5042 34.1284 87.8452 34.3971 87.3545 34.8769C86.8763 35.3746 86.6092 36.038 86.6092 36.7282C86.6092 37.4184 86.8763 38.0818 87.3545 38.5795Z" fill="white"/>
<path d="M101.104 36.6099C101.401 36.7483 101.655 36.9663 101.837 37.2397C102.019 37.5201 102.113 37.8483 102.108 38.1825C102.114 38.4343 102.067 38.6844 101.969 38.9167C101.872 39.1489 101.727 39.3579 101.543 39.53C101.361 39.7071 101.146 39.8463 100.91 39.9393C100.674 40.0324 100.422 40.0775 100.169 40.072H97.2866V33.3921H99.9586C100.204 33.3866 100.448 33.4304 100.676 33.5209C100.904 33.6114 101.112 33.7467 101.287 33.9188C101.463 34.0852 101.602 34.2867 101.696 34.5103C101.789 34.7338 101.834 34.9744 101.829 35.2166C101.838 35.4916 101.776 35.7642 101.649 36.0082C101.522 36.2522 101.334 36.4594 101.104 36.6099ZM99.9586 34.2242H98.176V36.2663H99.9586C100.091 36.2694 100.222 36.2445 100.344 36.1931C100.465 36.1418 100.575 36.0653 100.665 35.9686C100.759 35.8731 100.832 35.7596 100.882 35.635C100.931 35.5105 100.954 35.3773 100.951 35.2434C100.953 35.1104 100.929 34.9783 100.879 34.855C100.829 34.7317 100.755 34.6197 100.661 34.5257C100.572 34.4288 100.463 34.3519 100.342 34.2999C100.221 34.248 100.09 34.2222 99.9586 34.2242ZM100.169 39.2437C100.311 39.2479 100.453 39.2218 100.584 39.1672C100.716 39.1126 100.834 39.0307 100.932 38.9269C101.031 38.8263 101.109 38.707 101.162 38.576C101.214 38.4449 101.24 38.3046 101.237 38.1635C101.24 38.0219 101.214 37.8814 101.161 37.7502C101.108 37.619 101.028 37.4999 100.928 37.4C100.83 37.2973 100.711 37.2164 100.58 37.1625C100.448 37.1086 100.307 37.0829 100.165 37.087H98.176V39.2513L100.169 39.2437Z" fill="white"/>
<path d="M106.726 33.392H107.612V40.072H106.726V33.392Z" fill="white"/>
<path d="M113.502 39.2322H116.384V40.072H112.612V33.392H113.502V39.2322Z" fill="white"/>
<path d="M121.728 39.2322H124.827V40.072H120.838V33.392H124.781V34.2356H121.728V36.2854H124.541V37.1175H121.728V39.2322Z" fill="white"/>
<path d="M138.561 40.198C138.097 40.2134 137.634 40.1352 137.2 39.9681C136.766 39.8009 136.371 39.5482 136.036 39.225C135.702 38.9019 135.437 38.5148 135.255 38.0868C135.074 37.6588 134.98 37.1988 134.98 36.7339C134.98 36.2691 135.074 35.809 135.255 35.381C135.437 34.9531 135.702 34.566 136.036 34.2428C136.371 33.9196 136.766 33.6669 137.2 33.4998C137.634 33.3326 138.097 33.2545 138.561 33.2699C139.151 33.2638 139.733 33.4154 140.245 33.7089C140.743 33.9887 141.157 34.3974 141.443 34.8922L140.68 35.3388C140.485 34.9634 140.185 34.653 139.817 34.4456C139.435 34.2268 139.002 34.1135 138.561 34.1173C138.211 34.1069 137.863 34.1694 137.538 34.3009C137.214 34.4323 136.92 34.6297 136.676 34.8807C136.207 35.3849 135.947 36.0476 135.947 36.7358C135.947 37.424 136.207 38.0868 136.676 38.591C136.919 38.8427 137.213 39.0406 137.538 39.1721C137.862 39.3036 138.211 39.3657 138.561 39.3544C139.002 39.3598 139.436 39.2464 139.817 39.0261C140.178 38.8233 140.473 38.5212 140.668 38.1558L141.432 38.591C141.15 39.0894 140.736 39.5013 140.237 39.7819C139.724 40.0649 139.147 40.2084 138.561 40.198Z" fill="white"/>
<path d="M146.902 39.2322H149.784V40.072H146.012V33.392H146.902V39.2322Z" fill="white"/>
<path d="M159.342 39.1864C158.77 39.7632 158.016 40.1235 157.208 40.2057C156.4 40.288 155.589 40.0871 154.912 39.6374C154.236 39.1877 153.737 38.5171 153.501 37.7403C153.264 36.9634 153.305 36.1286 153.616 35.3784C153.926 34.6281 154.488 34.0092 155.205 33.6273C155.921 33.2453 156.749 33.1242 157.545 33.2845C158.341 33.4448 159.056 33.8766 159.569 34.5061C160.082 35.1357 160.361 35.9238 160.357 36.7358C160.364 37.192 160.278 37.6449 160.103 38.0664C159.929 38.4879 159.669 38.8691 159.342 39.1864ZM155.047 38.5795C155.538 39.0593 156.197 39.328 156.883 39.328C157.57 39.328 158.229 39.0593 158.719 38.5795C159.198 38.0818 159.465 37.4184 159.465 36.7282C159.465 36.038 159.198 35.3746 158.719 34.8769C158.229 34.3971 157.57 34.1284 156.883 34.1284C156.197 34.1284 155.538 34.3971 155.047 34.8769C154.569 35.3746 154.302 36.038 154.302 36.7282C154.302 37.4184 154.569 38.0818 155.047 38.5795Z" fill="white"/>
<path d="M169.163 39.5529C168.67 39.9947 168.023 40.2262 167.361 40.198C166.698 40.225 166.049 39.9938 165.552 39.5529C165.318 39.3334 165.134 39.0659 165.013 38.7688C164.892 38.4717 164.836 38.1519 164.85 37.8313V33.392H165.739V37.7932C165.73 37.9989 165.762 38.2043 165.834 38.3972C165.907 38.5901 166.017 38.7663 166.159 38.9154C166.503 39.1828 166.926 39.328 167.361 39.328C167.797 39.328 168.22 39.1828 168.564 38.9154C168.706 38.7663 168.816 38.5901 168.888 38.3972C168.961 38.2043 168.993 37.9989 168.984 37.7932V33.392H169.862V37.8313C169.876 38.1517 169.821 38.4714 169.701 38.7685C169.58 39.0656 169.397 39.3332 169.163 39.5529Z" fill="white"/>
<path d="M177.389 33.392C177.814 33.3816 178.237 33.4627 178.628 33.63C179.019 33.7973 179.37 34.0468 179.656 34.3616C180.237 35.0154 180.558 35.8595 180.558 36.7339C180.558 37.6084 180.237 38.4524 179.656 39.1063C179.37 39.4206 179.019 39.6695 178.628 39.8361C178.237 40.0028 177.814 40.0832 177.389 40.072H174.786V33.392H177.389ZM177.389 39.2322C177.703 39.2427 178.015 39.1842 178.304 39.0608C178.593 38.9375 178.851 38.7524 179.061 38.5184C179.48 38.0182 179.71 37.3865 179.71 36.7339C179.71 36.0814 179.48 35.4497 179.061 34.9494C178.851 34.7155 178.593 34.5304 178.304 34.407C178.015 34.2837 177.703 34.2252 177.389 34.2356H175.671V39.2322H177.389Z" fill="white"/>
</g>
<defs>
<clipPath id="clip0_1692_13230">
<rect width="181" height="48" fill="white"/>
</clipPath>
</defs>
</svg>
